<?xml version="1.0" encoding="UTF-8"?>
<svg id="Layer_1" xmlns="http://www.w3.org/2000/svg" version="1.1" viewBox="0 0 1024 1407">
  <!-- Generator: Adobe Illustrator 29.3.1, SVG Export Plug-In . SVG Version: 2.1.0 Build 151)  -->
  <defs>
    <style>
      .st0 {
        fill: none;
      }
    </style>
  </defs>
  <path class="st0" d="M635.41,345.82c1.67.33,3.33.67,5,1l5-5c.33-3.67.67-7.33,1-11-3.77-5.49-6.95-7.6-14-10-6.1,2.41-8.74,4.28-13,8-.18-13.45,1.48-21.78,5-30,1.33-.33,2.67-.67,4-1v5h1c3.82-1.89,4.75-2.66,7-6-.33-3-.67-6-1-9-1.67-.67-3.33-1.33-5-2-4.08-1.6-7.54.3-11,2,3.05-14.58,10.84-13.82,21-21-18.23-23.9-28.96-67.25-30-106-1.33-.67-2.67-1.33-4-2-4.76,35.91-1.6,80.64-21,118,5.71,4.35,12.89,5.54,18,10,.33,2.67.67,5.33,1,8-8.44-5.42-15.65-4.37-19,6,1.29,2.59,1.83,4.26,4,6,4.2,3.08,5.63.42,6-4,10.41,2.51,12.4,19.34,12,31-12.62-9.02-42.11-.3-27,18,1.67,2.39,2.4,2.6,5,4,2-.67,4-1.33,6-2,5.47-3.66,1.89-6.55-1-10,.33-.67.67-1.33,1-2,1-.33,2-.67,3-1,26.53,18.12,5,70.82,0,99-3.43,19.32,2.34,32.15,8,45v3c-3.99-2.49-8.33-4.25-13-1-1.67,2-3.33,4-5,6,1,3,2,6,3,9,2,.33,4,.67,6,1,1.23-3.38.91-2.46,1-6h2c9.82,22.32-24.68,58.45-2,85-.91,3.7-3.84,5.46-5,12h8c23.02,34.18-33.35,43.21-26,79,4.91,23.89,32.79,32.64,26,63-2.93,1.61-2.34,1.52-6,1l-2,1c.33,2,.67,4,1,6,3.36,2.51,3.92,3.6,10,4,2.95,6.29-1.75,8.56-1,14,4.33,15,8.67,30,13,45v2c1-.33,2-.67,3-1,2.33-17,4.67-34,7-51l-6-6c3.84-5.87,9.64-4.38,12-12v-3c-1.82-2.05-2.82-2.18-6-3-15.71-25.43,16.71-39.21,21-62,4.16-22.1-15.55-32.75-22-45-.33-7.33-.67-14.67-1-22,3-3.33,6-6.67,9-10,2,1.33,4,2.67,6,4l2-1c.61-7.33-2.96-8.51-5-14,7.13-4,7.25-26.26,5-36-3.98-17.22-14.98-29.45-10-48,5.4-2.61,4.81-.96,10,1,4.28-3.13,5.89-4.33,6-12-4.68-4.33-6.38-5.52-14-5,3.95-12.99,11.44-28.03,8-44-6.53-30.27-22.52-67.67-12-101,3.14-1.78,3.94-1.98,7-2,1,.67,2,1.33,3,2-1.87,2.26-1.86,1.36-3,5,1,1,2,2,3,3ZM604.41,269.82c2-5.67,4-11.33,6-17l9,9c-2.33,5.33-4.67,10.67-7,16h-1c-2.33-2.67-4.67-5.33-7-8ZM619.41,583.82l-2,1c-.61-8.07-2.96-11.17-5-17l-2-1c-3.41,4.67-4.38,9.97-4,16-13.53-12.44-4.35-24.97,1-37v-1c-4.03-1.95-4.97-1.96-9,0h-1c4-10.33,8-20.67,12-31,4.33,10.33,8.67,20.67,13,31-1.67-.67-3.33-1.33-5-2l-1,2c3.82,18,10.16,16.77,3,39ZM623.41,470.82l-2,1c-.67-8.67-1.33-17.33-2-26-1-.33-2-.67-3-1-3.57,6.6-2.41,11.5-8,17,4.13,6.75,6.43,10.57,6,23-19.56-18.09-5.9-56.91,0-78,9.36,9.32,10.93,52.26,9,64Z"/>
</svg>